<?xml version="1.0" encoding="UTF-8"?>
<svg id="_レイヤー_2" data-name="レイヤー 2" xmlns="http://www.w3.org/2000/svg" viewBox="0 0 41.1 41.1">
  <defs>
    <style>
      .cls-1 {
        fill: #fff;
      }
    </style>
  </defs>
  <g id="_レイヤー_1-2" data-name="レイヤー 1">
    <path class="cls-1" d="M19.34,14.55l-7.36,21.55c-.81-.45-1.58-.96-2.31-1.53l1.13-3.27-2.53-.87.86-2.57,2.53.87,1.73-5.06-2.53-.87.87-2.54,2.53.87,1.73-5.06-2.53-.87.87-2.54,2.53.87,1.69-4.99-2.5-.91.44-1.27,5.06,1.73-.38,1.1-1.77,5.18-.06.16h0ZM6.34,31.19c.66.88,1.41,1.7,2.22,2.45l.52-1.52-2.74-.93ZM9.64,18.17l3.8,1.3.87-2.53-3.8-1.3-.87,2.53ZM7.05,25.77l3.8,1.3.87-2.53-3.8-1.3-.87,2.53ZM38.31,20.55c0-2.53-.53-4.94-1.49-7.12l-13.33-4.56-9.6,28.13c2.06.83,4.31,1.3,6.67,1.3,9.81,0,17.75-7.95,17.75-17.75h0ZM12.23,10.57l3.8,1.3.87-2.53-3.8-1.3-.87,2.53Z"/>
    <path class="cls-1" d="M20.55,2.29c10.09,0,18.26,8.17,18.26,18.26s-8.17,18.26-18.26,18.26S2.29,30.64,2.29,20.55,10.46,2.29,20.55,2.29M20.55,0C9.2,0,0,9.2,0,20.55s9.2,20.55,20.55,20.55,20.55-9.2,20.55-20.55S31.9,0,20.55,0Z"/>
  </g>
</svg>