<?xml version="1.0" encoding="UTF-8"?>
<svg id="_レイヤー_2" data-name="レイヤー 2" xmlns="http://www.w3.org/2000/svg" viewBox="0 0 197.15 138.11">
  <defs>
    <style>
      .cls-1 {
        fill: #fff;
      }
    </style>
  </defs>
  <g id="Layer_1" data-name="Layer 1">
    <path class="cls-1" d="M192.98,21.6c-2.3-8.5-8.79-15.12-17.43-17.43C160.29,0,98.5,0,98.5,0c0,0-61.64,0-76.9,4.18C13.1,6.48,6.48,13.11,4.03,21.6,0,36.87,0,68.98,0,68.98c0,0,0,32.11,4.03,47.52,2.45,8.35,9.07,15.12,17.57,17.43,15.27,4.18,76.9,4.18,76.9,4.18,0,0,61.78,0,77.05-4.18,8.64-2.3,15.12-9.07,17.43-17.43,4.18-15.41,4.18-47.52,4.18-47.52,0,0,0-32.11-4.18-47.38ZM78.92,98.65v-59.19l51.12,29.52-51.12,29.67Z"/>
  </g>
</svg>